<svg fill="none" viewBox="0 0 24 24" xmlns="http://www.w3.org/2000/svg"><path clip-rule="evenodd" d="m16.5 3c-.8284 0-1.5-.67157-1.5-1.5 0-.828427.6716-1.5 1.5-1.5h6c.8284 0 1.5.671573 1.5 1.5v6c0 .82843-.6716 1.5-1.5 1.5s-1.5-.67157-1.5-1.5v-2.37868l-11.43934 11.43938c-.58579.5857-1.53553.5857-2.12132 0-.58579-.5858-.58579-1.5356 0-2.1214l11.43936-11.4393zm2.5 18v-7.5c0-.8284.6716-1.5 1.5-1.5s1.5.6716 1.5 1.5v8c0 1.3807-1.1193 2.5-2.5 2.5h-17c-1.38071 0-2.5-1.1193-2.5-2.5v-17c0-1.38071 1.11929-2.5 2.5-2.5h8c.8284 0 1.5.67157 1.5 1.5s-.6716 1.5-1.5 1.5h-7.5v16z" fill="#5996E6" fill-rule="evenodd"/></svg>